<svg xmlns="http://www.w3.org/2000/svg" width="102" height="198" viewBox="0 0 102 198"><path fill="#b4fff4" d="M92.3 146.7l-14.6-24.1c2.7-9.3 4.8-19.8 4.8-30 0-1.3 0-2.7-.1-4C80.9 61.7 70.5 52 62.7 44.3c-3.7-3.7-6.5-6.9-8.5-11.3 0-.1-.1-.2-.1-.3a7.6 7.6 0 0 0 3.3-1.1 4.6 4.6 0 0 0 2.2-4l-.5-1c-.6-.7-2.5-1-5.5-1.2a18.4 18.4 0 0 1 .1-5.2c.1-.9.1-.9 1.4-1h.3a1.8 1.8 0 0 0 1.6-1c.5-1-.2-2.2-.6-2.9V15l-.2-.4C54 9.3 52.9 5.7 52.9 3.7S52.3.4 51.8.2a1.1 1.1 0 0 0-1.3 0c-.2.1-1.1.6-1.1 3.5 0 1.3-.5 4.3-3.2 10.9v.3l-.2.3a4.4 4.4 0 0 0-.7 2.1 1.1 1.1 0 0 0 .2.8 1.8 1.8 0 0 0 1.6 1h.2c1.4.1 1.4.1 1.5 1s.2 2.3.2 3.2a6.5 6.5 0 0 1-.2 2c-3 .2-4.8.5-5.5 1.2l-.4 1a4.4 4.4 0 0 0 2.2 4 7.1 7.1 0 0 0 3.3 1.1l-.2.3c-1.9 4.5-5.1 7.7-8.8 11.4-7.8 7.8-18.2 17.4-19.7 44.2-.1 1.3-.1 2.7-.1 4 0 10.2 2.1 20.7 4.8 30L9.7 146.7.8 198h10.1l9.3-32.6 15.7-13.1.6.2 1.7.6.8 4.4c.1.8.5 2.8 7.9 3.3V198h8.2v-37.2c7.7-.5 8.1-2.5 8.3-3.3l.8-4.4 1.7-.6h.3l15.6 13 9.3 32.5h10.1z"/></svg>