<svg xmlns="http://www.w3.org/2000/svg" width="126" height="248" viewBox="0 0 126 248"><path fill="#b4fff4" d="M114.6 183.7l-18.3-30.2c3.4-11.6 6.1-24.7 6.1-37.5 0-1.7-.1-3.3-.2-5-1.8-33.7-14.8-45.8-24.6-55.5C73 50.9 69.5 47 67 41.4c0-.1-.1-.2-.1-.3a11 11 0 0 0 4.1-1.4 5.7 5.7 0 0 0 2.7-5.1l-.5-1.2q-1.2-1.2-6.9-1.5a20.4 20.4 0 0 1 .1-6.5c.1-1.1.1-1.1 1.8-1.3h.3a2.6 2.6 0 0 0 2-1.3c.6-1.3-.2-2.8-.7-3.7l-.2-.3-.2-.6c-2.6-6.4-4-11-4-13.5s-.7-4-1.3-4.4a1.7 1.7 0 0 0-1.7 0c-.3.2-1.4.8-1.4 4.4 0 1.7-.7 5.4-4 13.7v.4l-.2.3a5.8 5.8 0 0 0-1 2.7 1.9 1.9 0 0 0 .3 1 2.4 2.4 0 0 0 2 1.3h.3c1.6.2 1.6.2 1.8 1.3a30.2 30.2 0 0 1 .3 4 19.5 19.5 0 0 1-.2 2.5q-5.7.3-6.9 1.5l-.6 1.2a5.7 5.7 0 0 0 2.8 5.1 10.4 10.4 0 0 0 4.1 1.4l-.2.3C57 47.1 53 51.1 48.3 55.7c-9.7 9.7-22.7 21.8-24.5 55.3-.1 1.7-.2 3.3-.2 5 0 12.8 2.7 25.9 6.1 37.5l-18.3 30.2L.3 247.9h12.5l11.7-40.8 19.6-16.5.8.3 2.1.7c.4 2 .7 4.1 1 5.4s.6 3.6 9.8 4.2v46.6h10.3v-46.5c9.7-.6 10.2-3.1 10.4-4.1s.6-3.5.9-5.5l2.2-.7.4-.2 19.5 16.3 11.7 40.8h12.5z"/></svg>